<svg height="512" width="512" xmlns="http://www.w3.org/2000/svg">
<path fill="white" d="m49.999981,372l0,-126.539993l50.216457,-49.02002l36.796532,0l0,24.320023l-24.242416,0l-34.632057,33.819992l0,93.100021l344.155907,0l0,-93.100021l-34.63205,-33.819992l-24.242432,0l0,-24.320023l36.79657,0l49.783539,49.02002l0,126.539993l-400.00005,0zm87.012989,-121.219971l0,-125.400032l65.36795,-57.379997l161.038971,0l0,182.780029l-226.406921,0zm25.974045,-23.180023l174.458878,0l0,-136.800003l-109.090912,0l0,57.38002l-65.367966,0l0,79.419983z" id="print"/>
</svg>